<svg width="162" height="24" viewBox="0 0 162 24" fill="none" xmlns="http://www.w3.org/2000/svg" class="h-10 w-auto flex-shrink-0 text-white"><path d="M60 3.75V19.0084H70.4508V16.7046H62.3725V3.75H60Z" fill="currentColor"></path><path d="M76.0203 7.36328C73.7429 7.36328 72.0398 8.43721 71.3483 10.3093C71.3043 10.4291 71.1712 10.7904 71.1712 10.7904L73.1235 12.0606L73.3886 11.3651C73.8409 10.1794 74.6775 9.62689 76.0203 9.62689C77.3632 9.62689 78.1317 10.2821 78.1177 11.5724C78.1177 11.6248 78.1137 11.7828 78.1137 11.7828C78.1137 11.7828 76.3365 12.0727 75.6041 12.2287C72.479 12.893 71.1702 14.0927 71.1702 16.0554C71.1702 17.1011 71.7476 18.2334 72.8013 18.8685C73.4337 19.249 74.2592 19.3929 75.1708 19.3929C75.7702 19.3929 76.3525 19.3033 76.8919 19.1382C78.1177 18.7286 78.4599 17.9234 78.4599 17.9234V18.9762H80.4902V11.4496C80.4902 8.89114 78.8191 7.36328 76.0203 7.36328ZM78.1257 15.3951C78.1257 16.1862 77.2691 17.3004 75.2739 17.3004C74.7105 17.3004 74.3112 17.1504 74.0451 16.927C73.6888 16.6281 73.5717 16.1983 73.6208 15.8188C73.6418 15.6538 73.7409 15.2985 74.1081 14.9905C74.4833 14.6755 75.1468 14.45 76.1714 14.2256C77.014 14.0414 78.1267 13.8381 78.1267 13.8381V15.3961L78.1257 15.3951Z" fill="currentColor"></path><path d="M87.9971 7.36429C87.715 7.36429 87.4398 7.38442 87.1726 7.42166C85.3544 7.69643 84.8221 8.62542 84.8221 8.62542L84.8241 7.69643H82.5486V18.9792H84.9211V12.7208C84.9211 10.5941 86.4631 9.62588 87.8961 9.62588C89.4451 9.62588 90.1976 10.4633 90.1976 12.1874V18.9792H92.5701V11.8593C92.5701 9.08539 90.818 7.36328 87.9981 7.36328L87.9971 7.36429Z" fill="currentColor"></path><path d="M102.47 7.68737V8.84987C102.47 8.84987 101.889 7.36328 99.2443 7.36328C95.9582 7.36328 93.9169 9.64399 93.9169 13.3167C93.9169 15.3891 94.5753 17.0206 95.7371 18.0512C96.6407 18.8524 97.8474 19.263 99.2844 19.2912C100.284 19.3104 100.931 19.0366 101.336 18.7779C102.112 18.2807 102.4 17.8087 102.4 17.8087C102.4 17.8087 102.367 18.1781 102.307 18.6783C102.264 19.0406 102.183 19.2953 102.183 19.2953C101.822 20.5886 100.765 21.3364 99.2243 21.3364C97.6833 21.3364 96.7497 20.8261 96.5646 19.8206L94.2581 20.5131C94.6564 22.4456 96.4595 23.599 99.0812 23.599C100.863 23.599 102.26 23.1119 103.234 22.1497C104.216 21.1794 104.714 19.7814 104.714 17.9939V7.68637H102.47V7.68737ZM102.321 13.4183C102.321 15.6769 101.225 17.0256 99.3874 17.0256C97.4192 17.0256 96.2904 15.6729 96.2904 13.3157C96.2904 10.9585 97.4192 9.62588 99.3874 9.62588C101.181 9.62588 102.304 10.9685 102.321 13.1305V13.4183Z" fill="currentColor"></path><path d="M118.621 16.6771C118.941 16.0924 119.103 15.4029 119.103 14.6269C119.103 13.8509 118.966 13.2551 118.695 12.7729C118.424 12.2888 118.074 11.8933 117.655 11.5964C117.234 11.2974 116.789 11.0619 116.334 10.8948C115.878 10.7278 115.459 10.5929 115.09 10.4953L112.381 9.73535C112.039 9.64376 111.696 9.52802 111.362 9.39013C111.025 9.25123 110.738 9.05899 110.511 8.81844C110.279 8.57386 110.16 8.25581 110.16 7.87032C110.16 7.46571 110.298 7.10639 110.567 6.80243C110.834 6.50149 111.19 6.26798 111.626 6.10795C112.06 5.94792 112.537 5.87042 113.045 5.87746C113.568 5.89155 114.067 5.99925 114.528 6.19854C114.992 6.39782 115.39 6.69172 115.712 7.07217C116.025 7.44256 116.242 7.89347 116.358 8.41383L118.977 7.95587C118.754 7.05406 118.374 6.27201 117.845 5.63188C117.307 4.97967 116.629 4.47441 115.828 4.1312C115.027 3.78698 114.101 3.60883 113.076 3.60178C112.068 3.59474 111.134 3.75678 110.309 4.08389C109.485 4.41 108.822 4.9072 108.336 5.56143C107.852 6.21464 107.606 7.03393 107.606 7.99613C107.606 8.65438 107.715 9.21298 107.931 9.65785C108.147 10.1037 108.429 10.4741 108.769 10.761C109.11 11.0488 109.476 11.2763 109.858 11.4393C110.244 11.6034 110.607 11.7363 110.939 11.8329L114.843 12.9944C115.126 13.0799 115.378 13.1826 115.593 13.2993C115.81 13.4171 115.99 13.55 116.129 13.6939C116.269 13.8388 116.377 14.0059 116.45 14.1911C116.522 14.3763 116.558 14.5796 116.558 14.795C116.558 15.2771 116.404 15.6908 116.098 16.0219C115.797 16.35 115.4 16.6037 114.919 16.7738C114.439 16.9439 113.922 17.0304 113.38 17.0304C112.464 17.0304 111.643 16.7788 110.942 16.2826C110.251 15.7934 109.783 15.0949 109.553 14.2072L107.023 14.5937C107.18 15.5519 107.539 16.3923 108.091 17.0908C108.653 17.8024 109.382 18.357 110.255 18.7384C111.129 19.1209 112.128 19.3152 113.22 19.3152C113.989 19.3152 114.734 19.2165 115.438 19.0213C116.139 18.827 116.772 18.5311 117.317 18.1416C117.861 17.7541 118.3 17.2599 118.619 16.6751L118.621 16.6771Z" fill="currentColor"></path><path d="M131.052 9.84966C131.38 9.66144 131.756 9.56582 132.169 9.56582C132.838 9.56582 133.377 9.79128 133.77 10.2372C134.161 10.681 134.36 11.302 134.36 12.0861V18.899H136.79V11.448C136.79 10.2462 136.456 9.26287 135.8 8.52612C135.145 7.79138 134.188 7.41797 132.956 7.41797C132.212 7.41797 131.528 7.58505 130.923 7.91417C130.356 8.22316 129.89 8.65394 129.542 9.19342L129.496 9.26488L129.456 9.1904C129.181 8.6791 128.791 8.26141 128.295 7.9494C127.736 7.59712 127.029 7.41797 126.197 7.41797C125.439 7.41797 124.746 7.58706 124.137 7.9192C123.67 8.17385 123.271 8.50699 122.951 8.90758L122.862 9.0193V7.70079H120.726V18.899H123.177V11.9925C123.177 11.2789 123.377 10.6901 123.772 10.2432C124.169 9.7943 124.702 9.56683 125.358 9.56683C126.015 9.56683 126.577 9.7943 126.97 10.2432C127.362 10.6901 127.56 11.3211 127.56 12.1173V18.899H129.978V11.9925C129.978 11.4912 130.075 11.0524 130.267 10.6871C130.461 10.3207 130.725 10.0399 131.053 9.85066L131.052 9.84966Z" fill="currentColor"></path><path d="M144.513 16.0338C144.527 16.537 144.662 17.0383 144.916 17.5214C145.203 18.0498 145.629 18.4423 146.183 18.6869C146.741 18.9325 147.382 19.0663 148.09 19.0834C148.787 19.1006 149.51 19.0412 150.237 18.9073V16.8752C149.553 16.9738 148.932 17 148.394 16.9517C147.827 16.9014 147.408 16.6548 147.148 16.22C147.011 15.9965 146.937 15.7036 146.926 15.3514C146.916 15.0061 146.91 14.6015 146.91 14.1466V9.49358H150.237V7.59936H146.91V3.76562H144.492V7.59936H142.434V9.49358H144.492V14.2946C144.492 14.9407 144.499 15.5265 144.513 16.0348V16.0338Z" fill="currentColor"></path><path d="M157.427 7.35082C157.167 7.35082 156.914 7.36794 156.668 7.40014C154.878 7.68095 154.352 8.59787 154.352 8.59787V8.32914H154.351V3.73047H151.979V18.9678H154.351V12.7094C154.351 10.5686 155.893 9.5943 157.326 9.5943C158.875 9.5943 159.627 10.4317 159.627 12.1558V18.9678H162V11.8277C162 9.10917 160.205 7.35183 157.428 7.35183L157.427 7.35082Z" fill="currentColor"></path><path d="M140.846 7.70312H138.486V18.996H140.846V7.70312Z" fill="currentColor"></path><path d="M139.667 6.85959C140.516 6.85959 141.205 6.16698 141.205 5.3126C141.205 4.45823 140.516 3.76562 139.667 3.76562C138.817 3.76562 138.129 4.45823 138.129 5.3126C138.129 6.16698 138.817 6.85959 139.667 6.85959Z" fill="currentColor"></path><path fill-rule="evenodd" clip-rule="evenodd" d="M48 12C48 18.6163 42.5277 24 35.8024 24H12.1976C5.47233 24 0 18.6173 0 12C0 5.38272 5.47233 0 12.1976 0H35.8024C42.5286 0 48 5.38368 48 12ZM19.7123 11.4817C20.7324 12.7095 21.5077 14.1636 22.1424 15.6141C22.246 15.8062 22.301 16.0576 22.3633 16.2666C22.4568 16.5804 22.5007 16.8897 22.7315 17.1366C22.7871 17.2094 22.964 17.3017 23.0997 17.4266C23.4252 17.7262 23.8302 18.1273 23.6888 18.2965C23.7324 18.3897 23.9035 18.477 24.057 18.5865C24.3119 18.7685 24.5388 18.9438 24.3515 19.094C23.9457 19.1763 23.4835 19.1965 23.1733 18.8765C23.0815 19.0852 22.9108 19.0662 22.7315 19.0215C22.6884 19.0108 22.6244 18.9558 22.5842 18.949C22.5649 19.0022 22.6025 19.0419 22.5842 19.094C21.8997 19.1392 21.3653 18.4557 21.0378 17.934C20.7232 17.7663 20.3441 17.6359 20.0068 17.4991C19.6484 17.3537 19.317 17.2506 18.9759 17.0641C18.9684 17.1804 18.9769 17.3031 18.9759 17.4266C18.9715 17.9366 18.9239 18.4206 18.4604 18.7315C18.4451 19.347 18.9923 19.3897 19.4914 19.384C19.9228 19.3791 20.3732 19.3498 20.4487 19.7465C20.4154 19.7499 20.3355 19.7463 20.3014 19.7465L20.2995 19.7465C20.2043 19.7472 20.1559 19.7476 20.0805 19.819C19.838 20.0519 19.5414 19.9964 19.2704 19.8915C19.021 19.795 18.792 19.6637 18.5341 19.819C18.3017 19.9347 18.0919 20.0121 17.9449 20.109C17.6359 20.3128 17.4456 20.4937 16.8404 20.544C16.7905 20.4708 16.7976 20.4431 16.8404 20.399C16.9237 20.3039 17.0059 20.2059 17.0613 20.109C17.1736 19.9126 17.215 19.6835 17.5031 19.6015C17.1157 19.5418 16.7986 19.7181 16.4722 19.8915C16.4257 19.9162 16.3712 19.9402 16.3249 19.964C16.1218 20.0461 16.0057 20.0315 15.883 19.964C15.7133 19.8707 15.5794 19.7611 15.1467 20.0365C15.0643 19.9703 15.0999 19.8702 15.1467 19.819C15.3358 19.5913 15.5287 19.5885 15.8094 19.6015C15.0767 19.1984 14.6179 19.442 14.1893 19.674C13.8095 19.8797 13.4585 20.0685 13.1584 19.674C13.0222 19.7096 12.9396 19.7958 12.8638 19.8915C12.8327 19.9309 12.8255 20.0014 12.7902 20.0365C12.7171 19.9566 12.6982 19.8402 12.7166 19.7465C12.7242 19.7073 12.789 19.7134 12.7902 19.674C12.7719 19.6657 12.7355 19.6092 12.7166 19.6015C12.6057 19.5563 12.4644 19.5519 12.4956 19.384C12.2637 19.3071 12.1513 19.4 11.9802 19.529C11.9704 19.5364 11.9163 19.5217 11.9065 19.529C11.7944 19.4432 11.8938 19.3437 11.9802 19.239C12.02 19.1908 12.0378 19.1352 12.0538 19.094C12.1332 18.9576 12.2888 18.9526 12.422 18.949C12.5346 18.946 12.6388 18.9597 12.7166 18.8765C12.9947 18.7205 13.3292 18.795 13.6739 18.8765C13.9253 18.936 14.1786 18.9803 14.4103 18.949C14.8334 19.0022 15.3602 18.5789 15.1467 18.1515C14.7592 17.6641 14.7757 17.0781 14.7785 16.4841C14.7789 16.3826 14.7799 16.2936 14.7785 16.1941C14.7462 15.9688 14.4418 15.6581 14.1157 15.3966C13.8667 15.1969 13.5741 15.0025 13.453 14.8166C13.1185 14.4429 12.9036 14.0108 12.6429 13.5841C12.6349 13.571 12.5773 13.5973 12.5693 13.5841C12.1276 12.7402 12.0105 11.7794 11.8329 10.8292C11.6195 9.68758 11.3966 8.58029 10.7283 7.63924C10.174 7.94118 9.43899 7.7545 8.96097 7.34925C8.71062 7.57283 8.68582 7.90832 8.66642 8.21923C8.04804 7.60834 8.09747 6.43438 8.59278 5.75428C8.79517 5.48645 9.05863 5.29539 9.32917 5.10179C9.38917 5.05866 9.40484 5.025 9.40281 4.95679C9.89201 2.78508 13.2073 3.20155 14.263 4.7393C14.6117 5.17006 14.9089 5.62293 15.1467 6.11677C15.431 6.70738 15.7051 7.30513 16.1776 7.78424C16.6349 8.27771 17.0947 8.76368 17.5767 9.23421C18.3264 9.96597 19.0561 10.6642 19.7123 11.4817ZM28.1808 15.7591C28.8714 15.1352 29.5728 14.4611 29.5799 14.4541C29.627 14.4149 30.4062 13.735 31.5682 12.4242L32.9673 14.2366C32.341 15.0057 31.9743 15.4912 31.6418 15.9766C30.642 17.4371 29.809 18.648 29.8008 18.659C29.7968 18.6671 29.146 19.6015 28.1808 19.6015C28.0343 19.6015 27.8996 19.5792 27.7389 19.529C27.2029 19.3605 26.8113 19.0763 26.6344 18.659C26.4045 18.1194 26.5591 17.573 26.6344 17.4266C26.9069 16.8969 27.5034 16.371 28.1808 15.7591ZM39.0793 17.7166C39.2584 17.9162 39.3739 18.1747 39.3739 18.4415V18.5865C39.3739 18.8313 39.3015 19.0535 39.153 19.239C38.9465 19.4918 38.5988 19.674 38.2693 19.674C38.1981 19.674 38.0794 19.645 38.0082 19.632L37.9011 19.6015C37.6265 19.5494 37.3315 19.3882 37.1647 19.1665C36.6623 18.4985 35.5739 17.0117 34.5874 15.6866C34.1687 15.124 33.8028 14.5934 33.4828 14.1641C33.3674 14.0094 33.2073 13.8535 33.1146 13.7291C32.9051 13.4483 32.1449 12.4745 31.9364 12.2067C30.842 10.7953 30.1035 9.96723 30.0954 9.9592C30.0079 9.85387 29.7361 9.6268 29.5063 9.59671C29.1411 9.61276 28.7135 9.38924 28.6962 9.37921C28.5355 9.29896 28.3891 9.23421 28.328 9.23421C28.2009 9.31446 28.1757 9.35769 28.1808 9.52421C28.1808 9.54161 28.1804 9.57814 28.1808 9.59671C28.1815 9.63594 28.1828 9.62291 28.1808 9.66921C28.1716 9.90594 27.9822 10.0861 27.9598 10.1042C27.9598 10.1042 27.7115 10.3539 27.3707 10.6117C26.9558 10.9247 26.6466 10.6942 26.6344 10.6842C26.6079 10.6621 26.0979 10.2217 25.8243 9.8867C25.5548 9.55568 25.4718 9.44705 25.1616 9.01672C24.8036 8.52069 25.0752 8.16153 25.0879 8.14673L25.677 7.63924L25.6797 7.63712C25.7699 7.56636 26.1769 7.24701 26.4134 7.42175C26.6107 7.55516 26.8471 7.42676 26.8553 7.42175C26.8634 7.41673 26.9716 7.32608 26.9289 7.05925C26.8628 6.64899 27.1386 6.34731 27.1498 6.33427C27.158 6.32825 27.953 5.67875 28.9172 4.8843C30.3918 3.92958 32.2223 4.29896 32.9423 4.44426L32.9673 4.4493C33.4779 4.55262 34.0277 4.79256 33.9983 5.02929C33.9922 5.07844 33.9909 5.25582 33.7773 5.24679C32.1429 5.17958 31.0419 5.94251 30.7581 6.18927C30.7429 6.20231 30.7602 6.24271 30.7581 6.26177V6.33427C30.7561 6.34731 30.7531 6.39473 30.7581 6.40677L31.1263 7.27675C31.2148 7.4854 31.2736 7.70254 31.2736 7.92924V8.50923L31.4209 8.87172C31.5399 9.02419 32.9397 10.8507 34.2192 12.2792C35.2383 13.4167 37.912 16.3585 38.9321 17.4991L39.0793 17.7166ZM40.0367 6.26177L40.2576 6.47927C40.3369 6.55751 40.3587 6.73443 40.3312 6.84176L39.963 8.29173C39.9427 8.36395 39.4308 10.017 37.9011 10.3942C37.3469 10.5311 36.9805 10.5302 36.7229 10.5392C36.3043 10.5532 36.1952 10.5667 35.692 11.1192C35.588 11.2338 35.4395 11.3591 35.3238 11.4817C35.1326 11.6841 34.9595 11.8755 34.7346 12.1342L33.1882 10.3942C33.232 10.3431 33.2963 10.2907 33.3355 10.2492C33.4064 10.174 33.4647 10.0839 33.5564 9.9592C33.8351 9.59207 34.0418 9.3523 34.1455 9.16171C34.2299 9.00824 34.2283 8.82575 34.2192 8.65422L34.2183 8.6388C34.1937 8.1989 34.1488 7.39707 34.2192 6.91426C34.3158 6.2472 34.8854 5.53112 35.692 5.10179C36.258 4.79926 37.0596 4.49896 37.3781 4.37962L37.3857 4.3768C37.5118 4.32966 37.6664 4.42049 37.7538 4.5218L37.9011 4.6668C38.0018 4.78517 38.0008 4.91093 37.9011 5.02929L36.5756 6.62426C36.54 6.66639 36.4999 6.71409 36.502 6.76926V7.13175C36.504 7.19595 36.5258 7.30712 36.5756 7.34925L37.3857 8.00174C37.4335 8.04086 37.4709 8.00776 37.5329 8.00174H38.0484C38.1074 7.99572 38.157 7.97438 38.1957 7.92924L39.5212 6.33427C39.5792 6.26606 39.6526 6.19328 39.7421 6.18927C39.8316 6.18225 39.9736 6.19958 40.0367 6.26177Z" fill="currentColor"></path><path d="M15.6621 18.5865C15.593 18.9527 15.8816 19.1389 16.1776 19.0215C16.4715 18.8881 16.6681 19.0738 16.7667 19.3115C17.2203 19.3767 17.8459 19.1887 17.8713 18.659C17.3315 18.3521 17.1396 17.8263 16.914 17.2816C16.899 17.2452 16.8553 17.173 16.8404 17.1366C16.806 17.0531 16.7286 17.0019 16.6931 16.9191C16.6878 16.9068 16.6984 16.8588 16.6931 16.8466C16.6654 16.9532 16.6451 17.0843 16.6194 17.2091C16.4924 17.8258 16.357 18.5607 15.6621 18.5865Z" fill="currentColor"></path><path d="M28.549 18.659C28.4096 18.8877 28.0223 18.9432 27.6653 18.7315C27.4822 18.6232 27.2967 18.459 27.2235 18.2965C27.1563 18.1491 27.1594 18.0394 27.2235 17.934C27.2967 17.8137 27.4863 17.7166 27.6653 17.7166C27.826 17.7166 28.0119 17.7612 28.1808 17.8616C28.5378 18.0732 28.6883 18.4303 28.549 18.659Z" fill="currentColor"></path></svg>
